<svg width="220" height="180" viewBox="0 0 220 180" fill="none" xmlns="http://www.w3.org/2000/svg" role="img" aria-label="No saved recipes">
  <circle cx="110" cy="92" r="78" fill="#dcfce7"/>
  <!-- open cookbook -->
  <!-- left page -->
  <path d="M110 58c-12-7-28-9-42-6v74c14-3 30-1 42 6z" fill="#fff8e7" stroke="#e6d8b5" stroke-width="3" stroke-linejoin="round"/>
  <!-- right page -->
  <path d="M110 58c12-7 28-9 42-6v74c-14-3-30-1-42 6z" fill="#fdf6e3" stroke="#e6d8b5" stroke-width="3" stroke-linejoin="round"/>
  <!-- spine -->
  <path d="M110 58v74" stroke="#e6d8b5" stroke-width="3" stroke-linecap="round"/>
  <!-- text lines left -->
  <path d="M80 78h20M80 88h22M80 98h16" stroke="#ecdfbe" stroke-width="3" stroke-linecap="round"/>
  <!-- recipe lines right -->
  <path d="M122 78h18M122 88h20M122 98h14" stroke="#bbf7d0" stroke-width="3" stroke-linecap="round"/>
  <!-- bookmark ribbon -->
  <path d="M138 52v26l-7-5-7 5V52z" fill="#16a34a"/>
  <!-- little chef/heart accent -->
  <path d="M92 116c0-4 6-4 6 0 0-4 6-4 6 0 0 4-6 8-6 8s-6-4-6-8z" fill="#f59e0b"/>
  <circle cx="60" cy="60" r="3" fill="#86efac"/>
  <circle cx="160" cy="120" r="4" fill="#f59e0b"/>
</svg>
